<svg version="1.1" id="Layer_1" xmlns="http://www.w3.org/2000/svg" xmlns:xlink="http://www.w3.org/1999/xlink" x="0px" y="0px"
	 width="100%" viewBox="0 0 512 512" enable-background="new 0 0 512 512" xml:space="preserve">
<path fill="#44DF9F" opacity="1.000000" stroke="none" 
	d="
M225.000000,1.000001 
	C246.020889,1.000000 267.041779,1.000000 288.283264,1.384647 
	C289.516113,2.178402 290.494873,2.789630 291.546051,2.963969 
	C298.612488,4.135931 305.803009,4.757048 312.751434,6.406971 
	C337.338226,12.245188 360.912201,20.747063 382.949158,33.380173 
	C399.176056,42.682537 414.681854,53.071930 428.139191,65.958267 
	C440.044983,77.358932 451.350983,89.562996 461.633911,102.440735 
	C477.781342,122.662811 489.747253,145.441589 498.376190,169.878952 
	C504.509064,187.247406 509.428772,204.925858 511.099243,223.375107 
	C511.153046,223.969238 512.340820,224.460678 513.000000,225.000000 
	C513.000000,246.020889 513.000000,267.041779 512.614990,288.285187 
	C511.155487,294.034058 510.038910,299.552673 509.014099,305.088226 
	C505.064819,326.419922 498.396362,346.872589 489.135712,366.477509 
	C480.406189,384.958038 469.568207,402.076050 456.654358,417.966492 
	C441.382660,436.758179 424.228912,453.552856 404.182861,467.064575 
	C392.654327,474.835266 380.126221,481.123016 367.998138,487.610382 
	C370.454834,453.325867 365.419830,420.807098 350.758545,390.069031 
	C338.108856,363.548248 320.594757,340.822784 296.946411,322.663757 
	C295.632111,321.601959 294.453979,320.817383 293.072601,319.749268 
	C289.233704,316.946075 285.776550,314.097168 281.911041,312.001587 
	C278.223358,310.002289 277.391113,307.763367 279.495636,304.235535 
	C279.905609,303.548279 280.035431,302.693909 280.524414,301.655273 
	C316.825531,289.252625 336.799561,263.821655 342.155029,226.590073 
	C346.448822,226.590073 350.491791,227.139145 354.333038,226.491562 
	C368.283386,224.139664 378.044800,213.497543 379.720337,199.394318 
	C381.272003,186.333588 373.520081,174.130737 359.742615,167.544205 
	C360.665070,158.657349 361.347931,150.178787 362.620911,141.789795 
	C366.421875,116.741768 362.339294,93.325310 348.437744,71.956673 
	C315.306549,21.029406 242.262344,7.847824 192.247604,44.283272 
	C162.483780,65.966034 147.817429,95.405006 150.963440,132.723236 
	C151.955627,144.492691 153.509979,156.214737 154.463226,168.023407 
	C139.977829,174.195450 132.204987,187.244476 134.548401,200.944199 
	C137.341202,217.271149 150.166428,227.540344 167.127472,226.881332 
	C169.683807,226.782013 171.650955,226.591141 171.981567,230.020950 
	C173.385651,244.588028 179.027237,257.532196 187.246155,269.508942 
	C188.075790,270.717865 188.324524,272.881134 187.876602,274.295532 
	C186.939651,277.254089 185.357727,280.008392 183.570740,282.804749 
	C176.097977,283.152069 169.095184,283.541229 161.693481,283.952545 
	C160.228012,284.039368 159.161438,284.104095 157.682571,284.146606 
	C122.353004,288.807465 91.157295,302.169464 63.660679,324.199829 
	C48.624157,336.247162 36.190876,350.671692 24.710045,366.036743 
	C21.591204,358.946411 18.499681,352.179443 16.023256,345.194427 
	C9.742623,327.479218 4.528687,309.480499 2.898886,290.625031 
	C2.847718,290.033051 1.658610,289.539459 0.999999,289.000000 
	C1.000000,267.645782 1.000000,246.291550 1.378284,224.723785 
	C2.510237,220.411072 3.186920,216.295959 4.029973,212.215225 
	C9.847949,184.053741 18.703716,157.035889 32.947376,131.846008 
	C48.071373,105.099251 67.319946,81.914101 90.553680,61.883289 
	C109.601997,45.460899 130.579117,32.147602 153.600540,22.103415 
	C175.760101,12.435249 198.727615,5.560877 222.860168,2.918808 
	C223.634201,2.834067 224.289398,1.664079 225.000000,1.000001 
z"/>
<path fill="#01277B" opacity="1.000000" stroke="none" 
	d="
M25.017448,366.260803 
	C36.190876,350.671692 48.624157,336.247162 63.660679,324.199829 
	C91.157295,302.169464 122.353004,288.807465 157.628799,284.520660 
	C157.023727,289.976746 155.411713,295.010071 155.203293,300.100830 
	C153.982788,329.912567 166.147095,353.131073 192.065308,367.682983 
	C218.046204,382.270050 244.188019,380.229401 268.832001,363.498199 
	C283.317841,353.663513 292.076782,339.534210 297.082611,322.940948 
	C320.594757,340.822784 338.108856,363.548248 350.758545,390.069031 
	C365.419830,420.807098 370.454834,453.325867 367.801208,487.903503 
	C343.802399,499.919006 318.864166,507.513489 292.700623,511.051727 
	C291.402985,511.227203 290.230652,512.329346 289.000000,513.000000 
	C267.979095,513.000000 246.958206,513.000000 225.463821,512.595215 
	C223.983261,511.795593 223.007660,511.210938 221.963806,511.037781 
	C216.752335,510.173004 211.473343,509.654907 206.308167,508.581543 
	C179.725845,503.057556 154.493332,493.941986 130.829041,480.469421 
	C112.474724,470.019958 95.306831,457.893799 80.547859,442.880402 
	C68.628212,430.755310 57.161373,417.959717 47.151829,404.250824 
	C38.555286,392.477112 32.305164,378.990173 25.017448,366.260803 
z"/>
<path fill="#000000" opacity="1.000000" stroke="none" 
	d="
M24.710039,366.036743 
	C32.305164,378.990173 38.555286,392.477112 47.151829,404.250824 
	C57.161373,417.959717 68.628212,430.755310 80.547859,442.880402 
	C95.306831,457.893799 112.474724,470.019958 130.829041,480.469421 
	C154.493332,493.941986 179.725845,503.057556 206.308167,508.581543 
	C211.473343,509.654907 216.752335,510.173004 221.963806,511.037781 
	C223.007660,511.210938 223.983261,511.795593 224.995163,512.595215 
	C150.406296,513.000000 75.812599,513.000000 1.000000,513.000000 
	C1.000000,438.645905 1.000000,364.291626 0.999999,289.468658 
	C1.658610,289.539459 2.847718,290.033051 2.898886,290.625031 
	C4.528687,309.480499 9.742623,327.479218 16.023256,345.194427 
	C18.499681,352.179443 21.591204,358.946411 24.710039,366.036743 
z"/>
<path fill="#000000" opacity="1.000000" stroke="none" 
	d="
M513.000000,224.531342 
	C512.340820,224.460678 511.153046,223.969238 511.099243,223.375107 
	C509.428772,204.925858 504.509064,187.247406 498.376190,169.878952 
	C489.747253,145.441589 477.781342,122.662811 461.633911,102.440735 
	C451.350983,89.562996 440.044983,77.358932 428.139191,65.958267 
	C414.681854,53.071930 399.176056,42.682537 382.949158,33.380173 
	C360.912201,20.747063 337.338226,12.245188 312.751434,6.406971 
	C305.803009,4.757048 298.612488,4.135931 291.546051,2.963969 
	C290.494873,2.789630 289.516113,2.178402 288.751923,1.384647 
	C363.593719,1.000000 438.187408,1.000000 513.000000,1.000000 
	C513.000000,75.354088 513.000000,149.708389 513.000000,224.531342 
z"/>
<path fill="#000000" opacity="1.000000" stroke="none" 
	d="
M289.468628,513.000000 
	C290.230652,512.329346 291.402985,511.227203 292.700623,511.051727 
	C318.864166,507.513489 343.802399,499.919006 367.851135,488.371399 
	C380.126221,481.123016 392.654327,474.835266 404.182861,467.064575 
	C424.228912,453.552856 441.382660,436.758179 456.654358,417.966492 
	C469.568207,402.076050 480.406189,384.958038 489.135712,366.477509 
	C498.396362,346.872589 505.064819,326.419922 509.014099,305.088226 
	C510.038910,299.552673 511.155487,294.034058 512.614990,288.753845 
	C513.000000,363.593719 513.000000,438.187408 513.000000,513.000000 
	C438.645905,513.000000 364.291626,513.000000 289.468628,513.000000 
z"/>
<path fill="#000000" opacity="1.000000" stroke="none" 
	d="
M224.531342,1.000001 
	C224.289398,1.664079 223.634201,2.834067 222.860168,2.918808 
	C198.727615,5.560877 175.760101,12.435249 153.600540,22.103415 
	C130.579117,32.147602 109.601997,45.460899 90.553680,61.883289 
	C67.319946,81.914101 48.071373,105.099251 32.947376,131.846008 
	C18.703716,157.035889 9.847949,184.053741 4.029973,212.215225 
	C3.186920,216.295959 2.510237,220.411072 1.378284,224.255127 
	C1.000000,149.739456 1.000000,75.478920 1.000000,1.000000 
	C75.354088,1.000000 149.708389,1.000000 224.531342,1.000001 
z"/>
<path fill="#FDFEFE" opacity="1.000000" stroke="none" 
	d="
M359.772766,167.993439 
	C373.520081,174.130737 381.272003,186.333588 379.720337,199.394318 
	C378.044800,213.497543 368.283386,224.139664 354.333038,226.491562 
	C350.491791,227.139145 346.448822,226.590073 342.155029,226.590073 
	C336.799561,263.821655 316.825531,289.252625 280.093750,301.520508 
	C254.232056,307.792175 230.626724,304.310913 208.786591,290.003815 
	C207.845856,289.387573 206.605042,289.229462 205.504013,288.857910 
	C224.295639,306.283264 246.810913,316.458923 270.913452,323.720825 
	C270.671204,324.551941 270.592224,325.022217 270.403076,325.442993 
	C261.296112,345.702271 238.858536,356.686279 216.256836,351.958771 
	C195.693024,347.657532 178.855713,327.641022 179.285278,306.469360 
	C179.445633,298.566193 182.374313,290.719208 184.040710,282.846588 
	C185.357727,280.008392 186.939651,277.254089 187.876602,274.295532 
	C188.324524,272.881134 188.075790,270.717865 187.246155,269.508942 
	C179.027237,257.532196 173.385651,244.588028 171.981567,230.020950 
	C171.650955,226.591141 169.683807,226.782013 167.127472,226.881332 
	C150.166428,227.540344 137.341202,217.271149 134.548401,200.944199 
	C132.204987,187.244476 139.977829,174.195450 154.563660,168.448273 
	C155.940155,176.406387 157.140381,183.983841 157.730072,191.608505 
	C158.332199,199.394135 163.547775,202.869904 170.332428,206.824966 
	C169.958847,200.524078 169.525848,195.283966 169.371292,190.035660 
	C169.215744,184.753937 169.337067,179.464066 169.337067,174.177765 
	C169.703598,173.946274 170.070129,173.714798 170.436661,173.483322 
	C171.269119,174.934128 172.488144,176.289215 172.874756,177.850433 
	C177.134277,195.051727 191.595627,207.548981 208.989059,208.896851 
	C226.276840,210.236526 242.663818,200.461777 249.220459,184.332809 
	C251.062775,179.800797 251.208572,174.603546 252.732819,169.906219 
	C253.372345,167.935394 255.412231,165.251923 257.095917,165.031174 
	C260.548737,164.578430 261.024567,167.658371 261.014099,170.562057 
	C260.973236,181.887436 260.955353,193.213287 261.014923,204.538498 
	C261.045502,210.347702 258.836365,214.403610 253.020767,216.291489 
	C251.901123,216.654953 251.196991,218.298447 249.550735,220.233582 
	C259.362427,219.712875 264.733856,214.327026 264.956818,206.112473 
	C265.128876,199.775040 264.991180,193.429184 264.991180,185.913223 
	C275.035858,202.691528 288.631714,210.947052 306.836334,208.520508 
	C325.378021,206.049042 336.925323,194.825684 341.393372,176.508606 
	C341.651031,175.452423 342.664856,174.580704 343.326782,173.623138 
	C343.722229,173.799622 344.117645,173.976120 344.513092,174.152603 
	C343.969238,184.984375 343.425354,195.816132 342.849731,207.280701 
	C351.139496,203.360870 356.692749,198.612869 357.097748,189.203522 
	C357.403137,182.108261 358.839691,175.061691 359.772766,167.993439 
M264.500061,237.875931 
	C248.720291,237.875931 232.940536,237.875931 217.144241,237.875931 
	C218.049469,260.187378 237.242126,277.878113 258.490356,276.548492 
	C279.897736,275.208954 298.123047,256.778259 296.392151,237.875931 
	C286.115540,237.875931 275.807800,237.875931 264.500061,237.875931 
z"/>
<path fill="#042A7C" opacity="1.000000" stroke="none" 
	d="
M359.742615,167.544205 
	C358.839691,175.061691 357.403137,182.108261 357.097748,189.203522 
	C356.692749,198.612869 351.139496,203.360870 342.849731,207.280701 
	C343.425354,195.816132 343.969238,184.984375 344.513092,174.152603 
	C344.117645,173.976120 343.722229,173.799622 343.326782,173.623138 
	C342.664856,174.580704 341.651031,175.452423 341.393372,176.508606 
	C336.925323,194.825684 325.378021,206.049042 306.836334,208.520508 
	C288.631714,210.947052 275.035858,202.691528 264.991180,185.913223 
	C264.991180,193.429184 265.128876,199.775040 264.956818,206.112473 
	C264.733856,214.327026 259.362427,219.712875 249.550735,220.233582 
	C251.196991,218.298447 251.901123,216.654953 253.020767,216.291489 
	C258.836365,214.403610 261.045502,210.347702 261.014923,204.538498 
	C260.955353,193.213287 260.973236,181.887436 261.014099,170.562057 
	C261.024567,167.658371 260.548737,164.578430 257.095917,165.031174 
	C255.412231,165.251923 253.372345,167.935394 252.732819,169.906219 
	C251.208572,174.603546 251.062775,179.800797 249.220459,184.332809 
	C242.663818,200.461777 226.276840,210.236526 208.989059,208.896851 
	C191.595627,207.548981 177.134277,195.051727 172.874756,177.850433 
	C172.488144,176.289215 171.269119,174.934128 170.436661,173.483322 
	C170.070129,173.714798 169.703598,173.946274 169.337067,174.177765 
	C169.337067,179.464066 169.215744,184.753937 169.371292,190.035660 
	C169.525848,195.283966 169.958847,200.524078 170.332428,206.824966 
	C163.547775,202.869904 158.332199,199.394135 157.730072,191.608505 
	C157.140381,183.983841 155.940155,176.406387 154.907471,168.383347 
	C153.509979,156.214737 151.955627,144.492691 150.963440,132.723236 
	C147.817429,95.405006 162.483780,65.966034 192.247604,44.283272 
	C242.262344,7.847824 315.306549,21.029406 348.437744,71.956673 
	C362.339294,93.325310 366.421875,116.741768 362.620911,141.789795 
	C361.347931,150.178787 360.665070,158.657349 359.742615,167.544205 
M342.398193,130.190414 
	C329.195312,87.712769 283.980042,68.365372 243.789780,87.708504 
	C236.704620,91.118515 229.020813,93.404449 221.441284,95.620621 
	C217.198486,96.861168 212.465561,96.388802 208.186813,97.548866 
	C178.147995,105.693062 164.182541,129.933975 168.510757,162.851654 
	C172.062424,162.712708 172.062424,162.712708 173.021500,158.819107 
	C177.276794,141.543839 192.525116,129.100601 210.553146,128.191788 
	C227.778839,127.323448 244.081406,138.256546 250.066925,154.741791 
	C250.905548,157.051529 251.532715,159.438049 252.090881,161.247879 
	C255.515610,161.247879 258.522705,161.247879 261.920410,161.247879 
	C262.139862,160.508392 262.530090,159.265091 262.878204,158.010101 
	C268.426788,138.007111 287.521332,125.622360 307.944489,128.785400 
	C324.408417,131.335266 336.970306,142.979172 341.124329,159.342514 
	C341.486511,160.769135 342.794189,161.955704 343.662689,163.253784 
	C346.756653,151.793274 345.185394,141.333054 342.398193,130.190414 
M321.424866,137.985321 
	C320.421448,137.397018 319.445831,136.753952 318.410431,136.228699 
	C304.605164,129.225479 288.565277,131.431686 277.161255,141.884827 
	C266.071106,152.050247 262.434418,168.032104 268.010895,182.096771 
	C273.587311,196.161102 287.547424,205.326294 302.853638,204.971909 
	C318.136627,204.618073 331.688171,194.387924 336.436218,179.620300 
	C341.384399,164.230072 335.888153,148.466385 321.424866,137.985321 
M245.905975,154.838394 
	C245.251694,153.496094 244.661514,152.117920 243.933380,150.816940 
	C235.223328,135.254318 216.359329,128.284210 199.692291,134.449387 
	C182.862823,140.674637 172.862762,158.380783 176.489792,175.531754 
	C180.929382,196.525040 201.343811,209.248474 221.749847,203.740356 
	C242.446396,198.153839 253.406723,176.494675 245.905975,154.838394 
z"/>
<path fill="#042A7D" opacity="1.000000" stroke="none" 
	d="
M183.570740,282.804749 
	C182.374313,290.719208 179.445633,298.566193 179.285278,306.469360 
	C178.855713,327.641022 195.693024,347.657532 216.256836,351.958771 
	C238.858536,356.686279 261.296112,345.702271 270.403076,325.442993 
	C270.592224,325.022217 270.671204,324.551941 270.913452,323.720825 
	C246.810913,316.458923 224.295639,306.283264 205.504013,288.857910 
	C206.605042,289.229462 207.845856,289.387573 208.786591,290.003815 
	C230.626724,304.310913 254.232056,307.792175 279.863770,301.781830 
	C280.035431,302.693909 279.905609,303.548279 279.495636,304.235535 
	C277.391113,307.763367 278.223358,310.002289 281.911041,312.001587 
	C285.776550,314.097168 289.233704,316.946075 292.969604,320.130127 
	C283.792145,355.790100 252.152313,377.629150 217.741989,372.788757 
	C182.770615,367.869476 157.688156,337.744049 159.209045,302.073730 
	C159.468170,295.996033 161.096558,289.976685 162.092377,283.930420 
	C169.095184,283.541229 176.097977,283.152069 183.570740,282.804749 
z"/>
<path fill="#EFF1F7" opacity="1.000000" stroke="none" 
	d="
M161.693481,283.952515 
	C161.096558,289.976685 159.468170,295.996033 159.209045,302.073730 
	C157.688156,337.744049 182.770615,367.869476 217.741989,372.788757 
	C252.152313,377.629150 283.792145,355.790100 293.172882,320.413666 
	C294.453979,320.817383 295.632111,321.601959 296.946411,322.663757 
	C292.076782,339.534210 283.317841,353.663513 268.832001,363.498199 
	C244.188019,380.229401 218.046204,382.270050 192.065308,367.682983 
	C166.147095,353.131073 153.982788,329.912567 155.203293,300.100830 
	C155.411713,295.010071 157.023727,289.976746 158.041107,284.542847 
	C159.161438,284.104095 160.228012,284.039368 161.693481,283.952515 
z"/>
<path fill="#03287C" opacity="1.000000" stroke="none" 
	d="
M265.000061,237.875931 
	C275.807800,237.875931 286.115540,237.875931 296.392151,237.875931 
	C298.123047,256.778259 279.897736,275.208954 258.490356,276.548492 
	C237.242126,277.878113 218.049469,260.187378 217.144241,237.875931 
	C232.940536,237.875931 248.720291,237.875931 265.000061,237.875931 
z"/>
<path fill="#FDFDFE" opacity="1.000000" stroke="none" 
	d="
M342.570862,130.560181 
	C345.185394,141.333054 346.756653,151.793274 343.662689,163.253784 
	C342.794189,161.955704 341.486511,160.769135 341.124329,159.342514 
	C336.970306,142.979172 324.408417,131.335266 307.944489,128.785400 
	C287.521332,125.622360 268.426788,138.007111 262.878204,158.010101 
	C262.530090,159.265091 262.139862,160.508392 261.920410,161.247879 
	C258.522705,161.247879 255.515610,161.247879 252.090881,161.247879 
	C251.532715,159.438049 250.905548,157.051529 250.066925,154.741791 
	C244.081406,138.256546 227.778839,127.323448 210.553146,128.191788 
	C192.525116,129.100601 177.276794,141.543839 173.021500,158.819107 
	C172.062424,162.712708 172.062424,162.712708 168.510757,162.851654 
	C164.182541,129.933975 178.147995,105.693062 208.186813,97.548866 
	C212.465561,96.388802 217.198486,96.861168 221.441284,95.620621 
	C229.020813,93.404449 236.704620,91.118515 243.789780,87.708504 
	C283.980042,68.365372 329.195312,87.712769 342.570862,130.560181 
z"/>
<path fill="#FDFDFE" opacity="1.000000" stroke="none" 
	d="
M321.737915,138.173645 
	C335.888153,148.466385 341.384399,164.230072 336.436218,179.620300 
	C331.688171,194.387924 318.136627,204.618073 302.853638,204.971909 
	C287.547424,205.326294 273.587311,196.161102 268.010895,182.096771 
	C262.434418,168.032104 266.071106,152.050247 277.161255,141.884827 
	C288.565277,131.431686 304.605164,129.225479 318.410431,136.228699 
	C319.445831,136.753952 320.421448,137.397018 321.737915,138.173645 
M296.862579,157.077728 
	C287.431335,159.791031 283.709686,168.184845 288.794769,175.273987 
	C291.942657,179.662476 297.582458,181.300354 302.526062,179.261688 
	C307.355103,177.270279 310.382385,172.271667 309.741364,167.347916 
	C308.953857,161.299469 304.703369,157.667664 296.862579,157.077728 
z"/>
<path fill="#FDFDFE" opacity="1.000000" stroke="none" 
	d="
M246.009521,155.216797 
	C253.406723,176.494675 242.446396,198.153839 221.749847,203.740356 
	C201.343811,209.248474 180.929382,196.525040 176.489792,175.531754 
	C172.862762,158.380783 182.862823,140.674637 199.692291,134.449387 
	C216.359329,128.284210 235.223328,135.254318 243.933380,150.816940 
	C244.661514,152.117920 245.251694,153.496094 246.009521,155.216797 
M205.451004,173.776749 
	C209.121872,179.087341 213.345520,181.185562 218.456512,179.833038 
	C223.177856,178.583679 226.317398,175.541580 227.082184,170.565277 
	C227.864990,165.471634 226.137039,161.346619 221.638824,158.675217 
	C217.347916,156.126923 213.033279,156.434601 208.994965,159.293045 
	C204.705963,162.328949 203.469421,166.956055 205.451004,173.776749 
z"/>
<path fill="#062B7E" opacity="1.000000" stroke="none" 
	d="
M297.265320,157.054840 
	C304.703369,157.667664 308.953857,161.299469 309.741364,167.347916 
	C310.382385,172.271667 307.355103,177.270279 302.526062,179.261688 
	C297.582458,181.300354 291.942657,179.662476 288.794769,175.273987 
	C283.709686,168.184845 287.431335,159.791031 297.265320,157.054840 
z"/>
<path fill="#062B7E" opacity="1.000000" stroke="none" 
	d="
M205.281754,173.427612 
	C203.469421,166.956055 204.705963,162.328949 208.994965,159.293045 
	C213.033279,156.434601 217.347916,156.126923 221.638824,158.675217 
	C226.137039,161.346619 227.864990,165.471634 227.082184,170.565277 
	C226.317398,175.541580 223.177856,178.583679 218.456512,179.833038 
	C213.345520,181.185562 209.121872,179.087341 205.281754,173.427612 
z"/>
</svg>