<svg version="1.1" xmlns="http://www.w3.org/2000/svg" xmlns:xlink="http://www.w3.org/1999/xlink" width="30" height="24" viewBox="0,0,256,204.8"><g fill="#fc19a9" fill-rule="nonzero" stroke="none" stroke-width="1" stroke-linecap="butt" stroke-linejoin="miter" stroke-miterlimit="10" stroke-dasharray="" stroke-dashoffset="0" font-family="none" font-weight="none" font-size="none" text-anchor="none" style="mix-blend-mode: normal"><g transform="translate(2.17813,0.94799) scale(8.53333,8.53333)"><path d="M3.50614,7.75016c0.02653,0.00001 0.05307,0.00003 0.08041,0.00004c0.04576,-0.0001 0.04576,-0.0001 0.09243,-0.0002c0.05088,0.00014 0.05088,0.00014 0.10278,0.00029c0.03571,-0.00003 0.07143,-0.00006 0.10822,-0.00008c0.09958,-0.00005 0.19915,0.00005 0.29873,0.00022c0.10721,0.00014 0.21442,0.00009 0.32163,0.00007c0.1859,-0.00002 0.3718,0.00008 0.5577,0.00027c0.26878,0.00027 0.53756,0.00035 0.80635,0.00039c0.43603,0.00008 0.87207,0.0003 1.3081,0.00061c0.42368,0.0003 0.84736,0.00053 1.27103,0.00067c0.0261,0.00001 0.0522,0.00002 0.07908,0.00003c0.13092,0.00004 0.26183,0.00008 0.39274,0.00013c1.08676,0.00034 2.17356,0.00092 3.26036,0.00165c0,0.15765 -0.0524,0.24821 -0.1218,0.38108c-0.3433,0.68134 -0.5947,1.42725 -0.7308,2.18957c-0.0055,0.0294 -0.0111,0.0588 -0.0168,0.0891c-0.1819,0.9935 -0.17,2.0507 0.0168,3.0419c0.0047,0.0264 0.0094,0.0528 0.0143,0.0801c0.2215,1.2239 0.7555,2.3821 1.4778,3.3475c0.0127,0.0171 0.0254,0.0343 0.0385,0.0519c0.321,0.4314 0.6801,0.8322 1.0882,1.1675c0.0251,0.0209 0.0251,0.0209 0.0508,0.0422c0.4338,0.3582 0.8861,0.6632 1.3804,0.9136c0.0217,0.0111 0.0435,0.0223 0.0659,0.0337c0.9643,0.4905 1.9988,0.7315 3.0629,0.7326c0.0235,0 0.0469,0 0.0711,0.0001c0.4011,-0.0004 0.7898,-0.0295 1.185,-0.1073c0.0244,-0.0045 0.0488,-0.0091 0.074,-0.0139c0.9752,-0.1868 1.9416,-0.5942 2.7579,-1.2055c0.0494,-0.0363 0.0494,-0.0363 0.0997,-0.0734c0.2662,-0.1988 0.5116,-0.4189 0.753,-0.6517c0.0167,-0.016 0.0335,-0.032 0.0507,-0.0486c0.189,-0.1815 0.3659,-0.3671 0.5278,-0.5775c0.0239,-0.0288 0.0478,-0.0576 0.0724,-0.0872c0.2965,-0.3606 0.5523,-0.7651 0.7682,-1.1874c0.0137,-0.0267 0.0274,-0.0534 0.0415,-0.0809c0.0104,-0.0204 0.0207,-0.0407 0.0315,-0.0617c-0.0234,0 -0.0467,0 -0.0708,0.0001c-0.5675,0.0007 -1.1349,0.0012 -1.7024,0.0016c-0.2744,0.0002 -0.5488,0.0004 -0.8232,0.0008c-0.2391,0.0003 -0.4782,0.0005 -0.7173,0.0006c-0.1267,0 -0.2534,0.0001 -0.38,0.0004c-0.1191,0.0002 -0.2382,0.0003 -0.3573,0.0002c-0.0439,0 -0.0877,0.0001 -0.1315,0.0002c-0.0596,0.0002 -0.1192,0.0001 -0.1788,0c-0.0334,0.0001 -0.0669,0.0001 -0.1013,0.0001c-0.0746,-0.004 -0.0746,-0.004 -0.1051,-0.037c-0.003,-0.0499 -0.0038,-0.1 -0.0038,-0.1501c-0.0001,-0.0325 -0.0002,-0.0649 -0.0003,-0.0983c0.0001,-0.0359 0.0001,-0.0718 0.0002,-0.1088c-0.0001,-0.0375 -0.0001,-0.0751 -0.0002,-0.1138c-0.0001,-0.1248 0,-0.2497 0.0001,-0.3745c0,-0.0864 -0.0001,-0.1727 -0.0001,-0.259c-0.0001,-0.1812 0,-0.3624 0.0002,-0.5436c0.0001,-0.2098 0.0001,-0.4196 -0.0001,-0.6293c-0.0002,-0.2015 -0.0001,-0.4029 0,-0.6043c0,-0.0859 -0.0001,-0.1718 -0.0001,-0.2577c-0.0001,-0.1198 0,-0.2396 0.0002,-0.3594c-0.0001,-0.0359 -0.0001,-0.0718 -0.0002,-0.1088c0.0001,-0.0324 0.0002,-0.0649 0.0003,-0.0983c0,-0.0283 0,-0.0567 0,-0.0859c0.0038,-0.0642 0.0038,-0.0642 0.0343,-0.0972c0.0482,-0.0032 0.0966,-0.0041 0.1449,-0.0041c0.0315,-0.0001 0.0631,-0.0002 0.0956,-0.0003c0.0351,0.0001 0.0701,0.0002 0.1063,0.0002c0.0369,0 0.0738,-0.0001 0.1119,-0.0001c0.103,-0.0001 0.206,-0.0001 0.309,0c0.1109,0.0001 0.2217,0 0.3326,-0.0001c0.2174,-0.0002 0.4348,-0.0001 0.6523,0c0.1766,0 0.3532,0.0001 0.5298,0c0.0251,0 0.0502,0 0.076,0c0.051,0 0.1019,0 0.1529,0c0.4784,-0.0001 0.9568,0 1.4352,0.0002c0.4109,0.0001 0.8218,0.0001 1.2328,-0.0001c0.4766,-0.0001 0.9532,-0.0002 1.4299,-0.0001c0.0507,0 0.1015,0 0.1523,0c0.0375,0 0.0375,0 0.0757,0c0.1765,0.0001 0.353,0 0.5295,-0.0001c0.215,-0.0001 0.4299,0 0.6449,0.0001c0.1097,0.0001 0.2195,0.0002 0.3293,0.0001c0.1187,-0.0002 0.2375,0 0.3562,0.0001c0.0351,0 0.0702,-0.0001 0.1063,-0.0002c0.0315,0.0001 0.0631,0.0002 0.0956,0.0003c0.0274,0 0.0549,0 0.0832,0c0.0617,0.0041 0.0617,0.0041 0.0921,0.0371c0.009,0.148 0.0075,0.2966 0.0077,0.4449c0,0.0335 0,0.0335 0,0.0676c-0.0006,0.4389 -0.0351,0.8667 -0.099,1.3002c-0.0078,0.0535 -0.0078,0.0535 -0.0158,0.1082c-0.2586,1.7196 -0.8466,3.4093 -1.7808,4.8354c-0.0205,0.0314 -0.041,0.0629 -0.0621,0.0953c-0.0596,0.0899 -0.1202,0.1787 -0.1815,0.2672c-0.0231,0.0335 -0.0462,0.0669 -0.07,0.1013c-0.5348,0.7677 -1.1496,1.4789 -1.8484,2.0739c-0.0404,0.0352 -0.0808,0.0704 -0.1211,0.1056c-1.5202,1.315 -3.375,2.1394 -5.2973,2.428c-0.0227,0.0034 -0.0454,0.0069 -0.0688,0.0104c-0.463,0.0685 -0.9234,0.0996 -1.3909,0.0988c-0.0217,0 -0.0434,0 -0.0658,-0.0001c-0.4079,-0.001 -0.8115,-0.0216 -1.217,-0.072c-0.0317,-0.0039 -0.0634,-0.0078 -0.0961,-0.0118c-0.9722,-0.1252 -1.9257,-0.3994 -2.8272,-0.8121c-0.0194,-0.0089 -0.0388,-0.0177 -0.0587,-0.0268c-0.3117,-0.1423 -0.6159,-0.2981 -0.9157,-0.4676c-0.0208,-0.0117 -0.0415,-0.0233 -0.0629,-0.0353c-0.2996,-0.1695 -0.5842,-0.3597 -0.8658,-0.5621c-0.0302,-0.0216 -0.0604,-0.0432 -0.0915,-0.0655c-0.1715,-0.125 -0.3355,-0.2563 -0.4956,-0.398c-0.0672,-0.0592 -0.1356,-0.1163 -0.2047,-0.1729c-0.1257,-0.1054 -0.2435,-0.2185 -0.3607,-0.3348c-0.0639,-0.0626 -0.1285,-0.1237 -0.1938,-0.1845c-0.1469,-0.1387 -0.2843,-0.287 -0.4218,-0.4365c-0.0247,-0.0266 -0.0494,-0.0532 -0.0749,-0.0807c-0.1482,-0.1606 -0.2902,-0.3248 -0.4256,-0.4981c-0.0158,-0.0201 -0.0315,-0.0402 -0.0477,-0.061c-0.38735,-0.4996 -0.72475,-1.0299 -1.04042,-1.585c-0.03209,-0.0564 -0.06456,-0.1125 -0.09712,-0.1686c-0.33039,-0.5866 -0.57214,-1.2351 -0.7941,-1.8767c-0.0163,-0.0469 -0.0163,-0.0469 -0.03293,-0.0947c-0.40632,-1.1883 -0.61717,-2.4916 -0.60844,-3.7572c0.00013,-0.0388 0.00027,-0.0776 0.00041,-0.1175c0.00036,-0.0941 0.00085,-0.1881 0.00149,-0.2821c-0.03811,0.001 -0.03811,0.001 -0.07699,0.0021c-1.17286,0.0276 -2.13596,-0.2279 -3.01782,-1.1107c-0.62388,-0.6741 -1.04258,-1.63216 -1.05222,-2.59088c0.00121,-0.22007 0.00121,-0.22007 0.09598,-0.22656z"></path><path d="M0.15988,0.00433c0.02697,-0.00009 0.05394,-0.00018 0.08173,-0.00028c0.04505,0.0001 0.04505,0.0001 0.09101,0.00021c0.03173,-0.00006 0.06345,-0.00012 0.09614,-0.00018c0.10775,-0.00015 0.21549,-0.00007 0.32323,0.00001c0.07746,-0.00006 0.15492,-0.00014 0.23239,-0.00023c0.16918,-0.00016 0.33835,-0.00022 0.50753,-0.00018c0.2516,0.00005 0.50321,-0.00009 0.75481,-0.00026c0.47565,-0.00032 0.95131,-0.00041 1.42696,-0.00043c0.36764,-0.00002 0.73528,-0.00008 1.10291,-0.00019c0.10575,-0.00003 0.21151,-0.00006 0.31726,-0.00009c0.02629,-0.00001 0.05258,-0.00001 0.07967,-0.00002c0.74013,-0.0002 1.48027,-0.00033 2.22041,-0.00032c0.02793,0 0.05586,0 0.08464,0c0.14159,0 0.28317,0.00001 0.42475,0.00001c0.02812,0 0.05624,0 0.08521,0c0.05686,0 0.11373,0 0.17059,0c0.88313,0.00002 1.76625,-0.00023 2.64939,-0.00068c0.9922,-0.00051 1.9844,-0.00079 2.9766,-0.00076c0.106,0 0.212,0 0.318,0.00001c0.0261,0 0.0522,0 0.0791,0c0.4188,0 0.8376,-0.00021 1.2564,-0.00049c0.4218,-0.00028 0.8436,-0.00031 1.2654,-0.0001c0.2501,0.00012 0.5002,0.00006 0.7502,-0.00026c0.1876,-0.00022 0.3752,-0.0001 0.5628,0.00016c0.0752,0.00005 0.1505,-0.00001 0.2258,-0.00019c0.668,-0.00153 1.3326,0.03468 1.9933,0.14643c0.0207,0.00345 0.0414,0.00691 0.0627,0.01046c1.0923,0.18413 2.1588,0.55961 3.1404,1.11113c0.0925,0.05187 0.1858,0.10074 0.2798,0.14934c0.7895,0.42902 1.4901,1.01302 2.1505,1.64223c0.0438,0.04142 0.0881,0.08222 0.1324,0.12293c0.0223,0.02043 0.0445,0.04087 0.0675,0.06192c0.0277,0.02517 0.0277,0.02517 0.056,0.05085c0.0372,0.04184 0.0372,0.04184 0.0372,0.10776c0.0274,0.01325 0.0274,0.01325 0.0552,0.02678c0.0666,0.03911 0.1097,0.07525 0.158,0.13801c0,0.02175 0,0.0435 0,0.06591c0.0182,0.00871 0.0365,0.01742 0.0553,0.02639c0.0699,0.04154 0.1052,0.07865 0.1559,0.14458c0.0713,0.0914 0.1428,0.18238 0.2159,0.27203c0.6328,0.77752 1.1686,1.65375 1.5834,2.58807c0.0305,0.06881 0.0615,0.13739 0.0925,0.20598c0.1046,0.23374 0.2026,0.46941 0.2893,0.71168c0.012,0.03282 0.012,0.03282 0.0243,0.0663c0.0403,0.11652 0.0534,0.18429 0.0195,0.30241c-0.5008,0.01622 -1.0016,0.0284 -1.5025,0.03586c-0.2327,0.00356 -0.4652,0.0084 -0.6978,0.01635c-0.2029,0.00694 -0.4057,0.01137 -0.6087,0.01291c-0.1074,0.0009 -0.2145,0.00297 -0.3218,0.00806c-0.6497,0.02958 -0.6497,0.02958 -0.8435,-0.14033c-0.1331,-0.16348 -0.224,-0.34479 -0.3099,-0.54068c-0.0589,-0.12448 -0.135,-0.2301 -0.2169,-0.33764c-0.0134,-0.01812 -0.0269,-0.03624 -0.0407,-0.05492c-0.1698,-0.22695 -0.3501,-0.4439 -0.5435,-0.64749c-0.1523,-0.16479 -0.1523,-0.16479 -0.1975,-0.21602c-1.1375,-1.27216 -2.9635,-2.07843 -4.5884,-2.12589c-0.1911,-0.00322 -0.3822,-0.00274 -0.5733,-0.00262c-0.065,-0.00008 -0.13,-0.00018 -0.195,-0.00028c-0.1781,-0.00026 -0.3561,-0.00031 -0.5341,-0.00034c-0.1922,-0.00006 -0.3845,-0.00031 -0.5767,-0.00054c-0.3114,-0.00035 -0.6228,-0.00062 -0.9341,-0.00082c-0.5259,-0.00033 -1.0517,-0.00096 -1.5775,-0.0017c-0.2026,-0.00028 -0.4052,-0.00055 -0.6078,-0.00082c-0.0225,-0.00004 -0.045,-0.00007 -0.0681,-0.0001c-0.5353,-0.00072 -1.0705,-0.00137 -1.6058,-0.00199c-0.0234,-0.00003 -0.0468,-0.00005 -0.0709,-0.00008c-0.546,-0.00063 -1.092,-0.00119 -1.638,-0.00159c-0.0352,-0.00003 -0.0352,-0.00003 -0.0712,-0.00006c-0.1892,-0.00014 -0.3785,-0.00028 -0.56775,-0.00041c-0.78113,-0.00057 -1.56227,-0.00147 -2.3434,-0.00274c-0.11042,-0.00018 -0.22083,-0.00036 -0.33125,-0.00053c-0.02173,-0.00004 -0.04346,-0.00007 -0.06585,-0.00011c-0.34893,-0.00053 -0.69787,-0.00072 -1.0468,-0.00076c-0.35098,-0.00005 -0.70194,-0.00046 -1.05291,-0.00121c-0.18996,-0.0004 -0.37991,-0.00063 -0.56986,-0.00044c-0.17415,0.00018 -0.34829,-0.00011 -0.52243,-0.00074c-0.06275,-0.00015 -0.12549,-0.00014 -0.18823,0.00006c-1.05063,0.00306 -1.96676,-0.33818 -2.72863,-1.13377c-0.03292,-0.0325 -0.03292,-0.0325 -0.0665,-0.06565c-0.32702,-0.33187 -0.54241,-0.74942 -0.72523,-1.18673c-0.01472,-0.03403 -0.02944,-0.06806 -0.04461,-0.10313c-0.08903,-0.22464 -0.13652,-0.45275 -0.17807,-0.69197c-0.00523,-0.02987 -0.01046,-0.05974 -0.01585,-0.09052c-0.03357,-0.20961 -0.05008,-0.41767 -0.03554,-0.63043c0.0468,-0.05065 0.08933,-0.0371 0.15457,-0.03713z"></path></g></g></svg>